<?xml version="1.0" standalone="no"?>
<!DOCTYPE svg PUBLIC "-//W3C//DTD SVG 20010904//EN"
 "http://www.w3.org/TR/2001/REC-SVG-20010904/DTD/svg10.dtd">
<svg version="1.0" xmlns="http://www.w3.org/2000/svg"
 width="350.000000pt" height="100.000000pt" viewBox="0 0 350.000000 125.000000"
 preserveAspectRatio="xMidYMid meet">

<g transform="translate(0.000000,125.000000) scale(0.100000,-0.100000)"
fill="#000000" stroke="none">
<path d="M1805 1219 c-56 -5 -126 -17 -159 -28 -50 -18 -83 -21 -218 -21 -99
0 -158 4 -158 10 0 15 -39 12 -56 -4 -16 -17 -19 -52 -4 -61 6 -3 10 -21 10
-40 l0 -34 -67 -3 -68 -3 0 -45 0 -45 65 -1 65 -1 3 -115 c3 -138 -14 -128
190 -116 353 19 548 84 569 189 10 51 27 55 31 7 2 -22 -1 -38 -7 -38 -14 0
-14 -47 -1 -55 6 -3 10 -44 10 -91 0 -76 2 -85 18 -82 14 3 17 17 20 91 l3 87
155 0 155 0 -3 23 c-3 22 -6 22 -155 25 l-153 3 0 34 0 35 180 0 180 0 0 50 0
50 -182 2 c-101 1 -204 1 -231 -1 -27 -1 -67 5 -93 15 -44 17 -48 17 -124 -6
-129 -37 -145 -8 -28 51 77 39 198 67 339 78 123 10 152 17 146 35 -5 12 -39
9 -47 -5 -3 -5 -66 -13 -140 -19 -147 -11 -258 -37 -333 -78 -63 -34 -76 -57
-48 -85 19 -19 25 -20 93 -9 64 10 77 9 108 -6 30 -14 35 -23 38 -56 4 -46
-20 -76 -88 -111 -101 -51 -337 -107 -490 -117 l-55 -3 -3 108 -3 109 153 -5
c84 -2 162 -7 173 -11 21 -7 65 17 53 29 -3 4 -31 10 -61 14 -64 9 -87 24 -87
57 0 59 136 150 259 174 30 5 137 10 239 10 102 0 183 2 181 4 -9 8 -281 12
-374 5z m-307 -106 c-3 -5 -11 -23 -18 -40 l-14 -33 -98 0 -98 0 0 40 0 40
116 0 c64 0 114 -3 112 -7z"/>
<path d="M1268 581 c-18 -9 -39 -28 -48 -43 -13 -25 -13 -31 0 -55 9 -15 40
-41 70 -58 37 -21 56 -38 58 -53 4 -29 -34 -45 -80 -31 -27 7 -35 6 -46 -8
-11 -16 -9 -20 15 -30 78 -34 163 4 163 72 0 35 -25 62 -89 97 -77 42 -32 99
50 64 19 -8 34 30 17 40 -30 19 -79 21 -110 5z"/>
<path d="M293 583 c-10 -3 -13 -42 -13 -144 l0 -139 28 0 c26 0 27 1 27 57 0
80 20 81 76 4 38 -53 48 -60 77 -61 l33 0 -45 59 -46 59 31 32 c26 26 30 36
25 62 -8 42 -22 56 -65 68 -37 10 -107 12 -128 3z m131 -65 c18 -29 -4 -53
-53 -56 l-41 -3 0 41 0 41 41 -3 c27 -2 46 -9 53 -20z"/>
<path d="M1521 572 c-94 -51 -95 -218 -1 -264 64 -33 141 -14 184 45 26 35 28
127 3 173 -31 59 -121 81 -186 46z m128 -59 c20 -23 23 -34 19 -80 -6 -67 -30
-94 -83 -96 -53 -1 -75 28 -75 100 0 62 12 90 43 103 32 13 69 3 96 -27z"/>
<path d="M2811 568 c-5 -13 -34 -78 -64 -145 l-55 -123 32 0 c26 0 34 5 43 31
11 29 14 30 65 27 46 -3 54 -6 66 -30 10 -21 20 -28 42 -28 l29 0 -29 69 c-64
149 -99 221 -110 221 -6 0 -14 -10 -19 -22z m43 -125 c9 -26 16 -48 16 -50 0
-5 -66 -3 -72 2 -7 7 24 95 33 95 4 0 14 -21 23 -47z"/>
<path d="M3028 583 c-16 -4 -18 -20 -18 -144 l0 -139 30 0 30 0 0 60 c0 79 17
79 73 1 37 -52 46 -60 76 -60 l33 -1 -28 38 c-15 20 -35 47 -45 60 -17 22 -16
23 12 51 67 68 7 144 -111 140 -19 -1 -43 -3 -52 -6z m126 -65 c17 -27 -5 -52
-48 -56 l-36 -3 0 41 0 41 36 -3 c22 -2 42 -10 48 -20z"/>
<path d="M10 440 l0 -140 25 0 c24 0 25 2 25 65 l0 65 60 0 c53 0 60 2 60 20
0 18 -7 20 -60 20 l-60 0 0 35 0 35 80 0 c73 0 80 2 80 20 0 19 -7 20 -105 20
l-105 0 0 -140z"/>
<path d="M560 440 l0 -140 100 0 c93 0 100 1 100 20 0 18 -7 20 -75 20 l-75 0
0 45 0 45 55 0 c48 0 55 3 55 19 0 17 -8 20 -52 23 -52 3 -53 4 -56 36 l-3 32
75 0 c69 0 76 2 76 20 0 19 -7 20 -100 20 l-100 0 0 -140z"/>
<path d="M820 440 l0 -140 100 0 c93 0 100 1 100 20 0 18 -7 20 -70 20 l-70 0
0 45 0 45 50 0 c43 0 50 3 50 20 0 17 -7 20 -50 20 l-50 0 0 35 0 35 70 0 c63
0 70 2 70 20 0 19 -7 20 -100 20 l-100 0 0 -140z"/>
<path d="M1790 440 l0 -140 25 0 c24 0 25 2 25 65 l0 65 55 0 c48 0 55 2 55
20 0 18 -7 20 -55 20 l-55 0 0 35 0 35 80 0 c73 0 80 2 80 20 0 19 -7 20 -105
20 l-105 0 0 -140z"/>
<path d="M2030 560 c0 -18 7 -20 55 -20 l55 0 0 -120 0 -120 25 0 25 0 0 120
0 120 55 0 c48 0 55 2 55 20 0 19 -7 20 -135 20 -128 0 -135 -1 -135 -20z"/>
<path d="M2355 488 c60 -167 70 -191 81 -195 6 -2 25 37 43 87 18 49 34 90 36
90 2 0 18 -38 36 -85 30 -79 44 -103 55 -93 2 3 26 68 54 146 l50 142 -29 0
c-28 0 -31 -5 -56 -81 -15 -44 -31 -77 -35 -72 -4 4 -20 41 -35 81 -15 40 -33
72 -40 72 -8 0 -25 -34 -42 -80 -15 -44 -30 -80 -33 -80 -3 0 -18 36 -34 80
-26 74 -30 80 -56 80 l-28 0 33 -92z"/>
<path d="M3290 440 l0 -140 105 0 c98 0 105 1 105 20 0 18 -7 20 -75 20 l-75
0 0 45 0 45 50 0 c43 0 50 3 50 20 0 17 -7 20 -50 20 l-50 0 0 35 0 34 72 3
c60 2 73 6 76 21 3 15 -7 17 -102 17 l-106 0 0 -140z"/>
<path d="M82 98 c3 -87 21 -114 26 -41 3 40 5 42 40 46 l37 4 -37 1 c-33 2
-38 5 -38 27 0 23 4 25 45 25 25 0 45 5 45 10 0 6 -27 10 -60 10 l-61 0 3 -82z"/>
<path d="M442 157 c-28 -29 -29 -86 -3 -118 27 -33 95 -33 122 0 26 32 25 95
-1 121 -29 29 -90 27 -118 -3z m88 3 c14 0 31 -57 24 -84 -14 -56 -84 -60
-103 -6 -17 50 19 108 57 95 8 -3 17 -5 22 -5z"/>
<path d="M820 110 c0 -63 2 -71 25 -86 31 -20 90 -11 105 16 5 10 10 46 10 79
0 48 -3 61 -15 61 -12 0 -15 -14 -15 -63 0 -67 -10 -87 -45 -87 -35 0 -45 20
-45 87 0 35 -4 63 -10 63 -6 0 -10 -30 -10 -70z"/>
<path d="M1200 103 c0 -49 4 -83 10 -83 6 0 10 25 10 55 0 30 3 55 8 54 4 0
26 -25 50 -55 24 -30 46 -54 50 -54 4 0 7 36 7 80 0 57 -4 80 -12 80 -9 0 -13
-18 -13 -57 l0 -58 -55 60 -54 60 -1 -82z"/>
<path d="M1580 100 l0 -80 44 0 c62 0 91 25 91 80 0 55 -29 80 -91 80 l-44 0
0 -80z m94 44 c19 -19 21 -64 3 -87 -6 -10 -26 -19 -42 -20 l-30 -2 -3 63 -3
62 30 0 c16 0 37 -7 45 -16z"/>
<path d="M1971 101 c-32 -62 -38 -81 -26 -81 9 0 18 7 21 15 9 24 76 19 97 -6
10 -11 21 -19 23 -16 5 5 -53 145 -67 161 -4 5 -26 -28 -48 -73z m57 4 c16
-35 16 -35 -17 -35 -28 0 -29 1 -18 30 14 37 20 37 35 5z"/>
<path d="M2270 170 c0 -5 13 -10 30 -10 l29 0 3 -72 c2 -40 8 -73 13 -73 6 0
11 33 13 73 l3 72 34 0 c19 0 35 5 35 10 0 6 -33 10 -80 10 -47 0 -80 -4 -80
-10z"/>
<path d="M2660 94 c0 -54 4 -83 10 -79 6 3 10 42 10 86 0 46 -4 79 -10 79 -6
0 -10 -35 -10 -86z"/>
<path d="M2941 154 c-26 -33 -27 -84 -2 -115 24 -30 89 -33 120 -5 29 26 29
98 1 126 -31 31 -93 27 -119 -6z m107 -12 c18 -24 15 -69 -8 -92 -41 -41 -90
-14 -90 50 0 63 61 89 98 42z"/>
<path d="M3320 103 c0 -94 17 -114 22 -26 l3 57 53 -63 52 -63 0 86 c0 51 -4
86 -10 86 -6 0 -10 -26 -10 -57 l0 -58 -55 60 -54 60 -1 -82z"/>
</g>
</svg>
